<svg width="2848" height="740" viewBox="0 0 2848 740" fill="none" xmlns="http://www.w3.org/2000/svg">
<path d="M383.791 8.78516C395.197 8.78516 404.5 12.4024 411.698 19.6006C418.896 26.7987 422.514 36.1015 422.514 47.5078V254.667C422.514 280.949 404.869 294.091 369.506 294.091C365.999 294.091 360.905 293.906 354.149 293.574L354.187 293.61C347.432 293.278 342.559 293.094 339.532 293.094C370.946 380.062 402.211 651.821 433.366 739.27H382.426L280.913 262.382L287.558 252.6H374.046V51.6787H249.536L218.012 23.8086V51.6787H133.591V739.232H85.123V51.6787H0V8.78516H383.791ZM520.224 739.232H471.756V8.78516H520.224V739.232ZM756.47 8.78516C767.876 8.78516 777.179 12.4024 784.377 19.6006C791.575 26.7987 795.192 36.1015 795.192 47.5078V174.453H746.355V51.6787H622.88V696.339H746.355V323.068H688.105V281.208H795.192V700.51C795.192 711.916 791.575 721.219 784.377 728.417C777.179 735.615 767.876 739.232 756.47 739.232H613.098C601.691 739.232 592.389 735.615 585.19 728.417C577.992 721.219 574.375 711.916 574.375 700.51V47.5078C574.375 36.1015 577.992 26.7987 585.19 19.6006C592.389 12.4024 601.691 8.78516 613.098 8.78516H756.47ZM1073.19 8.78516C1079.28 8.78519 1084.74 9.85574 1089.69 11.9229L1088.69 8.78516H1124.98L1267.98 532.073H1268.02V8.78516H1313.72V739.232H1280.24L1134.43 153.191L1112.28 83.166V700.51C1112.28 711.916 1108.59 721.219 1101.28 728.417C1093.93 735.615 1084.6 739.232 1073.19 739.232H920.403C908.997 739.232 899.695 735.615 892.497 728.417C885.299 721.219 881.682 711.916 881.682 700.51V47.5078C881.682 36.1015 885.299 26.7987 892.497 19.6006C899.695 12.4026 908.997 8.7852 920.403 8.78516H1073.19ZM1555.47 8.78516C1566.87 8.78521 1576.25 12.4026 1583.56 19.6006C1590.9 26.7987 1594.56 36.1015 1594.56 47.5078V700.51C1594.56 711.916 1590.87 721.219 1583.56 728.417C1576.21 735.615 1566.87 739.232 1551.78 739.232H1398.99C1391.28 739.232 1381.97 735.615 1374.78 728.417C1367.58 721.219 1363.96 711.916 1363.96 700.51V47.5078C1363.96 36.1015 1367.58 26.7987 1374.78 19.6006C1381.97 12.4026 1391.28 8.7852 1402.68 8.78516H1555.47ZM1778.43 356.475C1778.91 358.32 1779.35 363.562 1779.83 372.163C1779.83 368.693 1780.31 363.451 1781.23 356.475L1869.12 4.1709V1.40234H2440.99C2452.39 1.40234 2461.7 5.01962 2468.9 12.2178C2476.09 19.4159 2479.71 28.7187 2479.71 40.125V247.284C2479.71 273.567 2462.07 286.708 2426.7 286.708C2423.2 286.708 2418.1 286.524 2411.35 286.191L2411.38 286.229C2404.63 285.896 2399.76 285.711 2396.73 285.711C2428.14 372.68 2459.41 644.438 2490.56 731.887H2439.62L2338.11 254.999L2344.72 245.217H2431.21V44.2959H2306.7V731.85H2258.23V44.2959H2176.02V731.85H2127.55V44.2959H1917.63V248.06H2034.83V291.654H1917.63V688.993H2048.45V731.887H1869.16V187.263L1784.74 680.613H1774.96L1685.66 158.729C1688.91 182.685 1690.53 196.971 1690.53 201.622V731.85H1644.83V1.40234H1689.83L1778.43 356.475ZM2573.73 731.85H2525.26V1.40234H2573.73V731.85ZM2751.36 0L2848 731.85H2799.86L2780.67 425.91H2672.18L2652.98 731.85H2606.25V730.447L2703.56 0H2751.36ZM930.186 696.339H1063.78V51.6787H930.186V696.339ZM1412.46 696.339H1546.05V51.6787H1412.46V696.339ZM2678.46 382.979H2774.39L2726.59 87.1904L2678.46 382.979Z" fill="white"/>
</svg>
